<mxfile host="app.diagrams.net" modified="2024-02-20T01:13:47.919Z" agent="Mozilla/5.0 (X11; Linux x86_64) AppleWebKit/537.36 (KHTML, like Gecko) Chrome/121.0.0.0 Safari/537.36" etag="faB95KuEDZYg-nBO1ni3" version="23.1.5" type="github">
  <diagram name="Page-1" id="e7e014a7-5840-1c2e-5031-d8a46d1fe8dd">
    <mxGraphModel dx="1857" dy="975" grid="1" gridSize="10" guides="1" tooltips="1" connect="1" arrows="1" fold="1" page="1" pageScale="1" pageWidth="1169" pageHeight="826" background="none" math="0" shadow="0">
      <root>
        <mxCell id="0" />
        <mxCell id="1" parent="0" />
        <mxCell id="r5W1KWdvYbIdEyj1AvEl-85" value="" style="rounded=1;whiteSpace=wrap;html=1;" vertex="1" parent="1">
          <mxGeometry x="137" y="6" width="850" height="1050" as="geometry" />
        </mxCell>
        <mxCell id="r5W1KWdvYbIdEyj1AvEl-62" style="edgeStyle=orthogonalEdgeStyle;rounded=0;orthogonalLoop=1;jettySize=auto;html=1;exitX=1;exitY=0.3333333333333333;exitDx=0;exitDy=0;exitPerimeter=0;endArrow=none;endFill=0;" edge="1" parent="1" source="r5W1KWdvYbIdEyj1AvEl-41" target="r5W1KWdvYbIdEyj1AvEl-55">
          <mxGeometry relative="1" as="geometry" />
        </mxCell>
        <mxCell id="r5W1KWdvYbIdEyj1AvEl-71" style="edgeStyle=orthogonalEdgeStyle;rounded=0;orthogonalLoop=1;jettySize=auto;html=1;entryX=0;entryY=0.5;entryDx=0;entryDy=0;endArrow=none;endFill=0;" edge="1" parent="1" source="r5W1KWdvYbIdEyj1AvEl-41" target="r5W1KWdvYbIdEyj1AvEl-70">
          <mxGeometry relative="1" as="geometry" />
        </mxCell>
        <mxCell id="r5W1KWdvYbIdEyj1AvEl-41" value="ADMIN" style="shape=umlActor;verticalLabelPosition=bottom;verticalAlign=top;html=1;outlineConnect=0;" vertex="1" parent="1">
          <mxGeometry x="477" y="330" width="30" height="60" as="geometry" />
        </mxCell>
        <mxCell id="r5W1KWdvYbIdEyj1AvEl-43" value="" style="rounded=1;whiteSpace=wrap;html=1;" vertex="1" parent="1">
          <mxGeometry x="197" y="370" width="220" height="360" as="geometry" />
        </mxCell>
        <mxCell id="r5W1KWdvYbIdEyj1AvEl-44" value="Productos" style="text;html=1;align=center;verticalAlign=middle;whiteSpace=wrap;rounded=0;" vertex="1" parent="1">
          <mxGeometry x="277" y="380" width="60" height="30" as="geometry" />
        </mxCell>
        <mxCell id="r5W1KWdvYbIdEyj1AvEl-75" style="edgeStyle=orthogonalEdgeStyle;rounded=0;orthogonalLoop=1;jettySize=auto;html=1;exitX=0.5;exitY=1;exitDx=0;exitDy=0;" edge="1" parent="1" source="r5W1KWdvYbIdEyj1AvEl-46" target="r5W1KWdvYbIdEyj1AvEl-47">
          <mxGeometry relative="1" as="geometry" />
        </mxCell>
        <mxCell id="r5W1KWdvYbIdEyj1AvEl-78" style="edgeStyle=orthogonalEdgeStyle;rounded=0;orthogonalLoop=1;jettySize=auto;html=1;entryX=1;entryY=0.5;entryDx=0;entryDy=0;exitX=1;exitY=0.5;exitDx=0;exitDy=0;" edge="1" parent="1" source="r5W1KWdvYbIdEyj1AvEl-46" target="r5W1KWdvYbIdEyj1AvEl-48">
          <mxGeometry relative="1" as="geometry">
            <Array as="points">
              <mxPoint x="307" y="460" />
              <mxPoint x="307" y="470" />
              <mxPoint x="387" y="470" />
              <mxPoint x="387" y="660" />
            </Array>
          </mxGeometry>
        </mxCell>
        <mxCell id="r5W1KWdvYbIdEyj1AvEl-46" value="Agregar" style="ellipse;whiteSpace=wrap;html=1;" vertex="1" parent="1">
          <mxGeometry x="247" y="420" width="120" height="80" as="geometry" />
        </mxCell>
        <mxCell id="r5W1KWdvYbIdEyj1AvEl-77" style="edgeStyle=orthogonalEdgeStyle;rounded=0;orthogonalLoop=1;jettySize=auto;html=1;" edge="1" parent="1" source="r5W1KWdvYbIdEyj1AvEl-47" target="r5W1KWdvYbIdEyj1AvEl-48">
          <mxGeometry relative="1" as="geometry" />
        </mxCell>
        <mxCell id="r5W1KWdvYbIdEyj1AvEl-47" value="&lt;span style=&quot;font-weight: normal;&quot;&gt;Actualizar&lt;/span&gt;" style="ellipse;whiteSpace=wrap;html=1;fontStyle=1" vertex="1" parent="1">
          <mxGeometry x="247" y="520" width="120" height="80" as="geometry" />
        </mxCell>
        <mxCell id="r5W1KWdvYbIdEyj1AvEl-48" value="Eliminar" style="ellipse;whiteSpace=wrap;html=1;" vertex="1" parent="1">
          <mxGeometry x="247" y="620" width="120" height="80" as="geometry" />
        </mxCell>
        <mxCell id="r5W1KWdvYbIdEyj1AvEl-50" style="edgeStyle=orthogonalEdgeStyle;rounded=0;orthogonalLoop=1;jettySize=auto;html=1;entryX=0.5;entryY=0;entryDx=0;entryDy=0;endArrow=none;endFill=0;" edge="1" parent="1" source="r5W1KWdvYbIdEyj1AvEl-41" target="r5W1KWdvYbIdEyj1AvEl-43">
          <mxGeometry relative="1" as="geometry" />
        </mxCell>
        <mxCell id="r5W1KWdvYbIdEyj1AvEl-55" value="" style="rounded=1;whiteSpace=wrap;html=1;" vertex="1" parent="1">
          <mxGeometry x="607" y="411" width="260" height="255" as="geometry" />
        </mxCell>
        <mxCell id="r5W1KWdvYbIdEyj1AvEl-56" value="Pedidos" style="text;html=1;align=center;verticalAlign=middle;whiteSpace=wrap;rounded=0;" vertex="1" parent="1">
          <mxGeometry x="707" y="410" width="60" height="30" as="geometry" />
        </mxCell>
        <mxCell id="r5W1KWdvYbIdEyj1AvEl-63" style="edgeStyle=orthogonalEdgeStyle;rounded=0;orthogonalLoop=1;jettySize=auto;html=1;entryX=0.5;entryY=0;entryDx=0;entryDy=0;" edge="1" parent="1" source="r5W1KWdvYbIdEyj1AvEl-57" target="r5W1KWdvYbIdEyj1AvEl-59">
          <mxGeometry relative="1" as="geometry" />
        </mxCell>
        <mxCell id="r5W1KWdvYbIdEyj1AvEl-57" value="Observacion Pedido" style="ellipse;whiteSpace=wrap;html=1;" vertex="1" parent="1">
          <mxGeometry x="677" y="450" width="120" height="80" as="geometry" />
        </mxCell>
        <mxCell id="r5W1KWdvYbIdEyj1AvEl-59" value="Aceptacion de pedido&amp;nbsp;" style="ellipse;whiteSpace=wrap;html=1;" vertex="1" parent="1">
          <mxGeometry x="677" y="560" width="120" height="80" as="geometry" />
        </mxCell>
        <mxCell id="r5W1KWdvYbIdEyj1AvEl-67" value="" style="rounded=1;whiteSpace=wrap;html=1;" vertex="1" parent="1">
          <mxGeometry x="527" y="110" width="210" height="210" as="geometry" />
        </mxCell>
        <mxCell id="r5W1KWdvYbIdEyj1AvEl-51" value="Reportes" style="text;html=1;align=center;verticalAlign=middle;whiteSpace=wrap;rounded=0;" vertex="1" parent="1">
          <mxGeometry x="607" y="130" width="60" height="30" as="geometry" />
        </mxCell>
        <mxCell id="r5W1KWdvYbIdEyj1AvEl-52" value="Configuracion&amp;nbsp;&lt;br&gt;Reportes automaticos" style="ellipse;whiteSpace=wrap;html=1;" vertex="1" parent="1">
          <mxGeometry x="549.5" y="210.00000000000003" width="165" height="80" as="geometry" />
        </mxCell>
        <mxCell id="r5W1KWdvYbIdEyj1AvEl-68" style="edgeStyle=orthogonalEdgeStyle;rounded=0;orthogonalLoop=1;jettySize=auto;html=1;entryX=-0.029;entryY=0.505;entryDx=0;entryDy=0;entryPerimeter=0;exitX=0.5;exitY=0;exitDx=0;exitDy=0;exitPerimeter=0;endArrow=none;endFill=0;" edge="1" parent="1" source="r5W1KWdvYbIdEyj1AvEl-41" target="r5W1KWdvYbIdEyj1AvEl-67">
          <mxGeometry relative="1" as="geometry">
            <Array as="points">
              <mxPoint x="492" y="310" />
              <mxPoint x="487" y="310" />
              <mxPoint x="487" y="216.00000000000003" />
            </Array>
          </mxGeometry>
        </mxCell>
        <mxCell id="r5W1KWdvYbIdEyj1AvEl-95" style="edgeStyle=orthogonalEdgeStyle;rounded=0;orthogonalLoop=1;jettySize=auto;html=1;" edge="1" parent="1" source="r5W1KWdvYbIdEyj1AvEl-70" target="r5W1KWdvYbIdEyj1AvEl-87">
          <mxGeometry relative="1" as="geometry" />
        </mxCell>
        <mxCell id="r5W1KWdvYbIdEyj1AvEl-70" value="" style="rounded=1;whiteSpace=wrap;html=1;" vertex="1" parent="1">
          <mxGeometry x="607" y="710" width="260" height="290" as="geometry" />
        </mxCell>
        <mxCell id="r5W1KWdvYbIdEyj1AvEl-72" value="Gestion de contenido web" style="text;html=1;align=center;verticalAlign=middle;whiteSpace=wrap;rounded=0;" vertex="1" parent="1">
          <mxGeometry x="667" y="730" width="140" height="30" as="geometry" />
        </mxCell>
        <mxCell id="r5W1KWdvYbIdEyj1AvEl-81" style="edgeStyle=orthogonalEdgeStyle;rounded=0;orthogonalLoop=1;jettySize=auto;html=1;entryX=0.5;entryY=0;entryDx=0;entryDy=0;" edge="1" parent="1" source="r5W1KWdvYbIdEyj1AvEl-73" target="r5W1KWdvYbIdEyj1AvEl-74">
          <mxGeometry relative="1" as="geometry" />
        </mxCell>
        <mxCell id="r5W1KWdvYbIdEyj1AvEl-73" value="Agregar producto en promocion&amp;nbsp;" style="ellipse;whiteSpace=wrap;html=1;" vertex="1" parent="1">
          <mxGeometry x="677" y="770" width="120" height="80" as="geometry" />
        </mxCell>
        <mxCell id="r5W1KWdvYbIdEyj1AvEl-74" value="eliminar producto en promocion&amp;nbsp;" style="ellipse;whiteSpace=wrap;html=1;" vertex="1" parent="1">
          <mxGeometry x="677" y="870" width="120" height="80" as="geometry" />
        </mxCell>
        <mxCell id="r5W1KWdvYbIdEyj1AvEl-82" style="edgeStyle=orthogonalEdgeStyle;rounded=0;orthogonalLoop=1;jettySize=auto;html=1;exitX=0.5;exitY=1;exitDx=0;exitDy=0;" edge="1" parent="1" source="r5W1KWdvYbIdEyj1AvEl-70" target="r5W1KWdvYbIdEyj1AvEl-70">
          <mxGeometry relative="1" as="geometry" />
        </mxCell>
        <mxCell id="r5W1KWdvYbIdEyj1AvEl-83" value="Cliente" style="shape=umlActor;verticalLabelPosition=bottom;verticalAlign=top;html=1;outlineConnect=0;" vertex="1" parent="1">
          <mxGeometry x="267" y="1140" width="30" height="60" as="geometry" />
        </mxCell>
        <mxCell id="r5W1KWdvYbIdEyj1AvEl-86" value="Gestionador WEB" style="text;html=1;align=center;verticalAlign=middle;whiteSpace=wrap;rounded=0;strokeWidth=6;fontSize=29;" vertex="1" parent="1">
          <mxGeometry x="394.5" y="41" width="312.5" height="30" as="geometry" />
        </mxCell>
        <mxCell id="r5W1KWdvYbIdEyj1AvEl-87" value="" style="rounded=1;whiteSpace=wrap;html=1;" vertex="1" parent="1">
          <mxGeometry x="487" y="1090" width="370" height="510" as="geometry" />
        </mxCell>
        <mxCell id="r5W1KWdvYbIdEyj1AvEl-88" value="&lt;font style=&quot;font-size: 29px;&quot;&gt;Landign page&lt;/font&gt;" style="text;html=1;align=center;verticalAlign=middle;whiteSpace=wrap;rounded=0;fontSize=19;" vertex="1" parent="1">
          <mxGeometry x="577" y="1120" width="190" height="25" as="geometry" />
        </mxCell>
        <mxCell id="r5W1KWdvYbIdEyj1AvEl-96" style="edgeStyle=orthogonalEdgeStyle;rounded=0;orthogonalLoop=1;jettySize=auto;html=1;exitX=1;exitY=0.5;exitDx=0;exitDy=0;" edge="1" parent="1" source="r5W1KWdvYbIdEyj1AvEl-89" target="r5W1KWdvYbIdEyj1AvEl-55">
          <mxGeometry relative="1" as="geometry">
            <Array as="points">
              <mxPoint x="1047" y="1230" />
              <mxPoint x="1047" y="539" />
            </Array>
          </mxGeometry>
        </mxCell>
        <mxCell id="r5W1KWdvYbIdEyj1AvEl-89" value="Generar un pedido&amp;nbsp;" style="ellipse;whiteSpace=wrap;html=1;" vertex="1" parent="1">
          <mxGeometry x="607" y="1190" width="120" height="80" as="geometry" />
        </mxCell>
        <mxCell id="r5W1KWdvYbIdEyj1AvEl-90" value="Ver productos en promocion" style="ellipse;whiteSpace=wrap;html=1;" vertex="1" parent="1">
          <mxGeometry x="612" y="1305" width="120" height="80" as="geometry" />
        </mxCell>
        <mxCell id="r5W1KWdvYbIdEyj1AvEl-91" value="Informacion del&amp;nbsp; local" style="ellipse;whiteSpace=wrap;html=1;" vertex="1" parent="1">
          <mxGeometry x="617" y="1430" width="120" height="80" as="geometry" />
        </mxCell>
        <mxCell id="r5W1KWdvYbIdEyj1AvEl-92" style="edgeStyle=orthogonalEdgeStyle;rounded=0;orthogonalLoop=1;jettySize=auto;html=1;endArrow=none;endFill=0;" edge="1" parent="1" source="r5W1KWdvYbIdEyj1AvEl-83" target="r5W1KWdvYbIdEyj1AvEl-89">
          <mxGeometry relative="1" as="geometry" />
        </mxCell>
        <mxCell id="r5W1KWdvYbIdEyj1AvEl-93" style="edgeStyle=orthogonalEdgeStyle;rounded=0;orthogonalLoop=1;jettySize=auto;html=1;entryX=0;entryY=0.5;entryDx=0;entryDy=0;endArrow=none;endFill=0;" edge="1" parent="1" source="r5W1KWdvYbIdEyj1AvEl-83" target="r5W1KWdvYbIdEyj1AvEl-90">
          <mxGeometry relative="1" as="geometry">
            <Array as="points">
              <mxPoint x="427" y="1170" />
              <mxPoint x="427" y="1345" />
            </Array>
          </mxGeometry>
        </mxCell>
        <mxCell id="r5W1KWdvYbIdEyj1AvEl-94" style="edgeStyle=orthogonalEdgeStyle;rounded=0;orthogonalLoop=1;jettySize=auto;html=1;entryX=0;entryY=0.5;entryDx=0;entryDy=0;endArrow=none;endFill=0;" edge="1" parent="1" source="r5W1KWdvYbIdEyj1AvEl-83" target="r5W1KWdvYbIdEyj1AvEl-91">
          <mxGeometry relative="1" as="geometry">
            <Array as="points">
              <mxPoint x="407" y="1170" />
              <mxPoint x="407" y="1470" />
            </Array>
          </mxGeometry>
        </mxCell>
      </root>
    </mxGraphModel>
  </diagram>
</mxfile>
